<svg id="Layer_2" data-name="Layer 2" xmlns="http://www.w3.org/2000/svg" viewBox="0 0 512 256"><defs><style>.cls-1{fill:#f70d3f;}.cls-2{fill:#fff;}</style></defs><title>heats</title><path class="cls-1" d="M59.46,232a.4.4,0,0,1-.61,0C56.1,228.81,35.7,222.8,35.7,206c0-16.68,17.86-16.84,23.09-8.57a.44.44,0,0,0,.74,0c5.22-8.27,23.09-8.11,23.09,8.57C82.62,222.8,62.21,228.81,59.46,232Z"/><path class="cls-2" d="M70.91,197.75a5.27,5.27,0,0,1,4,.85,6.33,6.33,0,0,1,1.59,1.55,6.74,6.74,0,0,1,1,2,7.31,7.31,0,0,1,0,4.17,6,6,0,0,1-2.25,3.31,1.19,1.19,0,0,1-1.85-1.18l0-.16a12.56,12.56,0,0,0,.24-2.62,8.34,8.34,0,0,0-.35-2.24,6.19,6.19,0,0,0-.91-1.86,7.19,7.19,0,0,0-1.82-1.69l-.11-.08a1.12,1.12,0,0,1-.28-1.56A1.15,1.15,0,0,1,70.91,197.75Z"/><path class="cls-1" d="M256.31,232a.41.41,0,0,1-.62,0c-2.74-3.21-23.15-9.22-23.15-26.05,0-16.68,17.86-16.84,23.09-8.57a.44.44,0,0,0,.74,0c5.23-8.27,23.09-8.11,23.09,8.57C279.46,222.8,259.05,228.81,256.31,232Z"/><path class="cls-2" d="M267.75,197.75a5.27,5.27,0,0,1,4.05.85,6.33,6.33,0,0,1,1.59,1.55,6.74,6.74,0,0,1,1,2,7.31,7.31,0,0,1,0,4.17,6.06,6.06,0,0,1-2.24,3.31,1.2,1.2,0,0,1-1.66-.3,1.18,1.18,0,0,1-.2-.88l0-.16a12.56,12.56,0,0,0,.24-2.62,8.34,8.34,0,0,0-.35-2.24,6.19,6.19,0,0,0-.91-1.86,7.19,7.19,0,0,0-1.82-1.69l-.11-.08a1.12,1.12,0,0,1-.28-1.56A1.18,1.18,0,0,1,267.75,197.75Z"/><path class="cls-1" d="M453.15,232a.4.4,0,0,1-.61,0c-2.75-3.21-23.16-9.22-23.16-26.05,0-16.68,17.87-16.84,23.09-8.57a.44.44,0,0,0,.74,0c5.23-8.27,23.09-8.11,23.09,8.57C476.3,222.8,455.9,228.81,453.15,232Z"/><path class="cls-2" d="M464.59,197.75a5.26,5.26,0,0,1,4.05.85,6.33,6.33,0,0,1,1.59,1.55,6.74,6.74,0,0,1,1,2,7.4,7.4,0,0,1,.05,4.17,6.12,6.12,0,0,1-2.25,3.31,1.2,1.2,0,0,1-1.66-.3,1.13,1.13,0,0,1-.19-.88l0-.16a11.92,11.92,0,0,0,.24-2.62,8.34,8.34,0,0,0-.34-2.24,6.46,6.46,0,0,0-.92-1.86,7.19,7.19,0,0,0-1.82-1.69l-.11-.08a1.12,1.12,0,0,1-.28-1.56A1.18,1.18,0,0,1,464.59,197.75Z"/><path class="cls-1" d="M59.46,63.83a.41.41,0,0,1-.61,0C56.1,60.61,35.7,54.6,35.7,37.77S53.56,20.93,58.79,29.2a.44.44,0,0,0,.74,0c5.22-8.27,23.09-8.11,23.09,8.57S62.21,60.61,59.46,63.83Z"/><path class="cls-2" d="M70.91,29.55a5.27,5.27,0,0,1,4,.85A6.33,6.33,0,0,1,76.55,32a6.74,6.74,0,0,1,1,2,7.31,7.31,0,0,1,0,4.17,6,6,0,0,1-2.25,3.31,1.19,1.19,0,0,1-1.85-1.18l0-.16a12.56,12.56,0,0,0,.24-2.62,8.34,8.34,0,0,0-.35-2.24,6.19,6.19,0,0,0-.91-1.86,7.38,7.38,0,0,0-1.82-1.69l-.11-.08A1.12,1.12,0,0,1,70.25,30,1.15,1.15,0,0,1,70.91,29.55Z"/><path class="cls-1" d="M256.31,63.83a.42.42,0,0,1-.62,0c-2.74-3.22-23.15-9.23-23.15-26.06s17.86-16.84,23.09-8.57a.44.44,0,0,0,.74,0c5.23-8.27,23.09-8.11,23.09,8.57S259.05,60.61,256.31,63.83Z"/><path class="cls-2" d="M267.75,29.55a5.27,5.27,0,0,1,4.05.85A6.33,6.33,0,0,1,273.39,32a6.74,6.74,0,0,1,1,2,7.31,7.31,0,0,1,0,4.17,6.06,6.06,0,0,1-2.24,3.31,1.2,1.2,0,0,1-1.66-.3,1.18,1.18,0,0,1-.2-.88l0-.16a12.56,12.56,0,0,0,.24-2.62,8.34,8.34,0,0,0-.35-2.24,6.19,6.19,0,0,0-.91-1.86,7.38,7.38,0,0,0-1.82-1.69l-.11-.08a1.12,1.12,0,0,1-.28-1.56A1.18,1.18,0,0,1,267.75,29.55Z"/><path class="cls-1" d="M453.15,63.83a.41.41,0,0,1-.61,0c-2.75-3.22-23.16-9.23-23.16-26.06s17.87-16.84,23.09-8.57a.44.44,0,0,0,.74,0c5.23-8.27,23.09-8.11,23.09,8.57S455.9,60.61,453.15,63.83Z"/><path class="cls-2" d="M464.59,29.55a5.26,5.26,0,0,1,4.05.85A6.33,6.33,0,0,1,470.23,32a6.74,6.74,0,0,1,1,2,7.4,7.4,0,0,1,.05,4.17A6.12,6.12,0,0,1,469,41.39a1.2,1.2,0,0,1-1.66-.3,1.13,1.13,0,0,1-.19-.88l0-.16a11.92,11.92,0,0,0,.24-2.62,8.34,8.34,0,0,0-.34-2.24,6.46,6.46,0,0,0-.92-1.86,7.38,7.38,0,0,0-1.82-1.69l-.11-.08a1.12,1.12,0,0,1-.28-1.56A1.18,1.18,0,0,1,464.59,29.55Z"/><path class="cls-1" d="M157.88,147.93a.41.41,0,0,1-.61,0c-2.75-3.22-23.15-9.23-23.15-26.06S152,105,157.21,113.3a.44.44,0,0,0,.74,0c5.23-8.27,23.09-8.11,23.09,8.57S160.63,144.71,157.88,147.93Z"/><path class="cls-2" d="M169.33,113.65a5.27,5.27,0,0,1,4,.85,6.33,6.33,0,0,1,1.59,1.55,6.74,6.74,0,0,1,1,2,7.31,7.31,0,0,1,0,4.17,6,6,0,0,1-2.25,3.31,1.19,1.19,0,0,1-1.85-1.18l0-.16a12.56,12.56,0,0,0,.24-2.62,8.34,8.34,0,0,0-.35-2.24,6.19,6.19,0,0,0-.91-1.86,7.38,7.38,0,0,0-1.82-1.69l-.11-.08a1.12,1.12,0,0,1-.28-1.56A1.18,1.18,0,0,1,169.33,113.65Z"/><path class="cls-1" d="M354.73,147.93a.41.41,0,0,1-.61,0c-2.75-3.22-23.16-9.23-23.16-26.06s17.86-16.84,23.09-8.57a.44.44,0,0,0,.74,0c5.23-8.27,23.09-8.11,23.09,8.57S357.48,144.71,354.73,147.93Z"/><path class="cls-2" d="M366.17,113.65a5.26,5.26,0,0,1,4.05.85,6.33,6.33,0,0,1,1.59,1.55,6.74,6.74,0,0,1,1,2,7.31,7.31,0,0,1,0,4.17,6.06,6.06,0,0,1-2.24,3.31,1.2,1.2,0,0,1-1.66-.3,1.13,1.13,0,0,1-.19-.88l0-.16a11.92,11.92,0,0,0,.24-2.62,8.34,8.34,0,0,0-.35-2.24,6.19,6.19,0,0,0-.91-1.86,7.38,7.38,0,0,0-1.82-1.69l-.11-.08a1.12,1.12,0,0,1-.28-1.56A1.18,1.18,0,0,1,366.17,113.65Z"/></svg>